HIERARCHY
ROOT Hips
{
 OFFSET 0.000000 0.000000 0.000000
 CHANNELS 6 Xposition Yposition Zposition Yrotation Xrotation Zrotation
 JOINT Chest
 {
  OFFSET 0.000000 9.588913 -0.003946
  CHANNELS 3 Yrotation Xrotation Zrotation
  JOINT Chest2
  {
   OFFSET 0.000000 9.541882 0.008053
   CHANNELS 3 Yrotation Xrotation Zrotation
   JOINT Chest3
   {
    OFFSET 0.000000 9.501360 0.000000
    CHANNELS 3 Yrotation Xrotation Zrotation
    JOINT Chest4
    {
     OFFSET 0.000000 9.491660 0.000000
     CHANNELS 3 Yrotation Xrotation Zrotation
     JOINT Neck
     {
      OFFSET 0.000000 14.331917 0.000000
      CHANNELS 3 Yrotation Xrotation Zrotation
      JOINT Head
      {
       OFFSET 0.000000 8.884799 0.017034
       CHANNELS 3 Yrotation Xrotation Zrotation
       End Site
       {
        OFFSET 0.000000 16.896195 0.008993
       }
      }
     }
     JOINT RightCollar
     {
      OFFSET -2.923010 9.499495 0.000000
      CHANNELS 3 Yrotation Xrotation Zrotation
      JOINT RightShoulder
      {
       OFFSET -13.795216 0.000000 0.000000
       CHANNELS 3 Yrotation Xrotation Zrotation
       JOINT RightElbow
       {
        OFFSET -30.272209 0.000000 0.000000
        CHANNELS 3 Yrotation Xrotation Zrotation
        JOINT RightWrist
        {
         OFFSET -24.478199 0.000000 0.000000
         CHANNELS 3 Yrotation Xrotation Zrotation
         End Site
         {
          OFFSET -18.090752 0.000000 0.000000
         }
        }
       }
      }
     }
     JOINT LeftCollar
     {
      OFFSET 2.923010 9.499495 0.000000
      CHANNELS 3 Yrotation Xrotation Zrotation
      JOINT LeftShoulder
      {
       OFFSET 13.795216 0.000000 0.000000
       CHANNELS 3 Yrotation Xrotation Zrotation
       JOINT LeftElbow
       {
        OFFSET 30.272209 0.000000 0.000000
        CHANNELS 3 Yrotation Xrotation Zrotation
        JOINT LeftWrist
        {
         OFFSET 24.478199 0.000000 0.000000
         CHANNELS 3 Yrotation Xrotation Zrotation
         End Site
         {
          OFFSET 18.090752 0.000000 0.000000
         }
        }
       }
      }
     }
    }
   }
  }
 }
 JOINT RightHip
 {
  OFFSET -7.826875 0.019532 0.001973
  CHANNELS 3 Yrotation Xrotation Zrotation
  JOINT RightKnee
  {
   OFFSET 0.000000 -40.546152 -0.001885
   CHANNELS 3 Yrotation Xrotation Zrotation
   JOINT RightAnkle
   {
    OFFSET 0.000000 -39.417092 -0.003189
    CHANNELS 3 Yrotation Xrotation Zrotation
    JOINT RightToe
    {
     OFFSET 0.000000 -7.579396 17.243563
     CHANNELS 3 Yrotation Xrotation Zrotation
     End Site
     {
      OFFSET 0.000000 -1.500329 6.694466
     }
    }
   }
  }
 }
 JOINT LeftHip
 {
  OFFSET 7.826875 0.019532 0.001973
  CHANNELS 3 Yrotation Xrotation Zrotation
  JOINT LeftKnee
  {
   OFFSET 0.000000 -40.546152 -0.001885
   CHANNELS 3 Yrotation Xrotation Zrotation
   JOINT LeftAnkle
   {
    OFFSET 0.000000 -39.417092 -0.003189
    CHANNELS 3 Yrotation Xrotation Zrotation
    JOINT LeftToe
    {
     OFFSET 0.000000 -7.579396 17.243563
     CHANNELS 3 Yrotation Xrotation Zrotation
     End Site
     {
      OFFSET 0.000000 -1.500329 6.694466
     }
    }
   }
  }
 }
}
MOTION
Frames: 15
Frame Time: 0.008333
0.000000 87.345680 0.000000 0.000000 -5.767889 0.000000 0.000000 11.653876 0.000000 0.000000 -5.885988 0.000000 0.000000 -0.000000 0.000000 0.000000 -0.000000 0.000000 0.000000 12.528808 0.000000 0.000000 0.711711 0.000000 0.000000 -0.000000 0.000000 0.000000 -0.000000 0.000000 2.309063 -0.000000 0.000000 -2.309063 -0.000000 -0.000000 0.000000 -0.000000 0.000000 0.000000 0.000000 0.000000 -2.309063 0.000000 0.000000 2.309063 -0.000000 0.000000 0.000000 8.520374 0.000000 0.000000 1.905768 0.000000 -0.000000 -4.658254 0.000000 0.000000 -0.000000 0.000000 0.000000 8.520374 0.000000 0.000000 1.905768 0.000000 -0.000000 -4.658254 0.000000 0.000000 -0.000000 0.000000
-23.258773 87.913950 -2.349684 -144.345551 -9.075329 -0.941386 5.500263 2.669626 -2.111278 3.106681 1.486317 -1.083692 3.879245 1.866886 -1.342009 3.106681 1.486317 -1.083692 -5.956067 29.223753 7.500859 -8.458776 7.660846 9.866683 5.333190 -7.323384 -6.161164 -19.554822 -43.738367 63.144587 106.853037 -32.314696 15.657087 -7.643688 -7.042650 20.425471 -2.534489 0.958396 1.922315 3.562704 -1.422426 -85.385642 1.105014 -3.231659 0.660983 -2.424245 3.618870 2.120364 -7.621529 13.736608 -10.829859 0.796987 2.716679 -1.420583 1.778638 -6.980409 8.562897 0.049980 -0.376757 0.020120 21.717293 14.953014 12.095370 12.487518 -2.508786 -0.427504 1.675727 -3.718532 -9.213968 0.076579 0.405866 0.030464
-23.256651 87.913708 -2.349905 -144.334941 -9.069465 -0.941073 5.500781 2.674075 -2.112361 3.106821 1.488354 -1.084839 3.879410 1.869442 -1.343424 3.106821 1.488354 -1.084839 -6.005592 29.165223 7.473474 -8.508565 7.585140 9.846082 5.323051 -7.337108 -6.171749 -19.569660 -43.742484 63.141787 106.859097 -32.312162 15.649940 -7.646814 -7.040140 20.428347 -2.570556 0.945928 1.918251 3.568622 -1.433515 -85.371479 1.121932 -3.222827 0.668134 -2.418740 3.641531 2.109117 -7.628528 13.734272 -10.828844 0.799952 2.711525 -1.421273 1.773441 -6.980140 8.562034 0.050318 -0.377074 0.020726 21.707953 14.944787 12.092038 12.484049 -2.505814 -0.427261 1.677015 -3.720269 -9.212719 0.077377 0.407210 0.030429
-23.253874 87.913466 -2.350841 -144.328398 -9.064203 -0.943249 5.501172 2.679808 -2.113453 3.106963 1.491060 -1.085568 3.879578 1.872832 -1.344312 3.106963 1.491060 -1.085568 -6.049370 29.107242 7.448978 -8.552415 7.509926 9.827430 5.318098 -7.355391 -6.182052 -19.585345 -43.744275 63.143461 106.871053 -32.299728 15.634889 -7.657289 -7.030377 20.434360 -2.605781 0.929848 1.914839 3.570624 -1.441364 -85.356204 1.132006 -3.209652 0.676104 -2.412531 3.664759 2.095702 -7.629181 13.731123 -10.823297 0.800594 2.709618 -1.423314 1.770297 -6.980214 8.563550 0.049994 -0.377797 0.019390 21.702804 14.936911 12.092895 12.479792 -2.503621 -0.427408 1.678985 -3.722021 -9.211935 0.077991 0.408707 0.030199
-23.250584 87.913227 -2.352474 -144.328701 -9.059816 -0.947132 5.502198 2.685959 -2.113762 3.107593 1.494180 -1.085862 3.880356 1.876735 -1.344652 3.107593 1.494180 -1.085862 -6.088071 29.051963 7.425635 -8.590696 7.437914 9.808909 5.319763 -7.375101 -6.192208 -19.600703 -43.746180 63.148840 106.885238 -32.276443 15.612275 -7.671661 -7.018216 20.439628 -2.638922 0.911005 1.909281 3.569311 -1.444129 -85.338826 1.135613 -3.191041 0.684411 -2.407124 3.681458 2.086706 -7.623631 13.726094 -10.815142 0.800265 2.712049 -1.424456 1.770179 -6.981318 8.564180 0.049452 -0.378374 0.018002 21.704560 14.930112 12.097275 12.475078 -2.502654 -0.427108 1.681658 -3.723199 -9.212472 0.078315 0.409932 0.030047
-23.247000 87.912952 -2.354351 -144.333719 -9.054776 -0.950798 5.504604 2.691115 -2.112749 3.109098 1.497009 -1.085854 3.882230 1.880276 -1.344612 3.109098 1.497009 -1.085854 -6.124771 29.000982 7.402614 -8.626786 7.371489 9.790358 5.319744 -7.393775 -6.201723 -19.612347 -43.749317 63.156306 106.897968 -32.248080 15.583642 -7.683912 -7.006080 20.442782 -2.671849 0.891935 1.902393 3.562166 -1.441463 -85.320269 1.136861 -3.170702 0.689603 -2.404718 3.688397 2.084356 -7.615258 13.718600 -10.806708 0.801854 2.716500 -1.425254 1.770848 -6.983184 8.563888 0.049685 -0.378142 0.017224 21.709962 14.924114 12.101531 12.472058 -2.504012 -0.426831 1.685520 -3.722748 -9.213765 0.078174 0.410845 0.030296
-23.243354 87.912647 -2.356362 -144.340415 -9.049391 -0.953466 5.507470 2.695352 -2.111639 3.110827 1.499363 -1.085926 3.884386 1.883223 -1.344675 3.110827 1.499363 -1.085926 -6.158980 28.954787 7.381335 -8.660485 7.311420 9.773319 5.317785 -7.411181 -6.208763 -19.626092 -43.751868 63.168658 106.904490 -32.221267 15.556774 -7.685915 -6.998339 20.441322 -2.702521 0.873943 1.896905 3.548422 -1.436371 -85.303107 1.139987 -3.153330 0.692016 -2.406761 3.686738 2.085527 -7.607256 13.710522 -10.799464 0.805074 2.720377 -1.426010 1.772025 -6.985049 8.563748 0.050358 -0.377144 0.016512 21.716276 14.919043 12.104411 12.472248 -2.507061 -0.426066 1.688097 -3.720656 -9.217057 0.078093 0.411316 0.031738
-23.239765 87.912323 -2.358544 -144.344938 -9.044349 -0.955364 5.509773 2.699065 -2.111496 3.112219 1.501441 -1.086275 3.886120 1.885827 -1.345088 3.112219 1.501441 -1.086275 -6.189637 28.913037 7.362481 -8.690728 7.257195 9.758306 5.317138 -7.424907 -6.212309 -19.646424 -43.755148 63.184845 106.902997 -32.199699 15.536827 -7.675171 -7.000265 20.431871 -2.733844 0.858256 1.892928 3.536983 -1.431268 -85.288604 1.144129 -3.144179 0.693863 -2.410522 3.681003 2.088595 -7.601683 13.702744 -10.793993 0.807771 2.724931 -1.424791 1.772044 -6.987714 8.561553 0.051068 -0.375639 0.016685 21.720101 14.914754 12.105960 12.473188 -2.510511 -0.423978 1.689115 -3.717809 -9.222157 0.078228 0.411586 0.033615
-23.236554 87.912022 -2.361119 -144.347198 -9.042037 -0.955607 5.511927 2.703558 -2.112174 3.113730 1.504172 -1.086982 3.887998 1.889251 -1.345943 3.113730 1.504172 -1.086982 -6.217412 28.874374 7.345260 -8.718079 7.206973 9.744536 5.316622 -7.436427 -6.213013 -19.666959 -43.760823 63.199405 106.894386 -32.184677 15.519387 -7.657216 -7.007836 20.417372 -2.767464 0.843664 1.889356 3.531282 -1.425378 -85.276657 1.145703 -3.142328 0.696122 -2.413494 3.672972 2.091225 -7.596943 13.697857 -10.790638 0.810470 2.730851 -1.422569 1.768060 -6.991783 8.557942 0.051959 -0.373800 0.017609 21.722519 14.913326 12.107251 12.473636 -2.513083 -0.422410 1.689184 -3.715050 -9.226522 0.077408 0.411511 0.034606
-23.233821 87.911759 -2.364322 -144.349173 -9.044116 -0.954036 5.514854 2.709603 -2.113058 3.115872 1.507775 -1.087934 3.890663 1.893768 -1.347094 3.115872 1.507775 -1.087934 -6.243820 28.838498 7.329212 -8.744174 7.160475 9.731851 5.312262 -7.446964 -6.211875 -19.686703 -43.768598 63.213380 106.877842 -32.177167 15.505923 -7.638731 -7.017438 20.402656 -2.799177 0.829508 1.885706 3.527033 -1.420621 -85.267014 1.146843 -3.144887 0.698334 -2.414656 3.669810 2.090361 -7.592040 13.698356 -10.789528 0.812949 2.735940 -1.420789 1.762834 -6.996292 8.555311 0.052982 -0.371836 0.018033 21.726525 14.915435 12.109461 12.475076 -2.512905 -0.421888 1.687324 -3.713606 -9.229516 0.075824 0.411059 0.034515
-23.230860 87.911435 -2.367956 -144.350131 -9.047216 -0.953357 5.518433 2.715150 -2.113532 3.118374 1.510985 -1.088538 3.893780 1.897792 -1.347811 3.118374 1.510985 -1.088538 -6.269544 28.806062 7.314588 -8.769881 7.118683 9.720728 5.302192 -7.451259 -6.208561 -19.708413 -43.782196 63.231687 106.852374 -32.179612 15.502844 -7.624390 -7.028035 20.391971 -2.827515 0.818255 1.883887 3.524256 -1.420388 -85.261533 1.152985 -3.149627 0.699251 -2.413066 3.672273 2.088162 -7.588879 13.701297 -10.788075 0.814509 2.738602 -1.418828 1.759090 -6.999933 8.553889 0.053824 -0.370025 0.017332 21.730917 14.917174 12.113077 12.477148 -2.511146 -0.421138 1.684713 -3.713867 -9.232031 0.074582 0.411406 0.033762
-23.227564 87.911008 -2.371742 -144.345329 -9.049559 -0.953849 5.519545 2.719630 -2.113877 3.119343 1.513621 -1.088961 3.894983 1.901093 -1.348314 3.119343 1.513621 -1.088961 -6.292777 28.776101 7.301962 -8.793234 7.080155 9.711355 5.290230 -7.449010 -6.203121 -19.730457 -43.803160 63.255321 106.819963 -32.188867 15.508955 -7.616456 -7.039128 20.389709 -2.851557 0.810331 1.884361 3.526034 -1.425383 -85.259579 1.164227 -3.152748 0.697897 -2.410497 3.676245 2.085782 -7.593505 13.704708 -10.787443 0.815231 2.739225 -1.415533 1.757951 -7.003033 8.553247 0.054253 -0.368541 0.015567 21.727814 14.918501 12.115817 12.478728 -2.510554 -0.420125 1.685242 -3.714375 -9.233684 0.074029 0.412675 0.032623
-23.224478 87.910587 -2.375878 -144.335132 -9.054050 -0.953733 5.517241 2.724339 -2.113545 3.118246 1.516396 -1.089328 3.893603 1.904562 -1.348755 3.118246 1.516396 -1.089328 -6.312890 28.748202 7.290940 -8.813401 7.044205 9.703103 5.280723 -7.445014 -6.198813 -19.750807 -43.824251 63.280126 106.785392 -32.199148 15.518909 -7.613519 -7.048733 20.394305 -2.870956 0.805384 1.883560 3.532875 -1.432083 -85.258519 1.173880 -3.154383 0.693362 -2.407209 3.680765 2.083594 -7.604185 13.711600 -10.789741 0.814648 2.738381 -1.410343 1.758176 -7.006172 8.552229 0.054486 -0.367250 0.013749 21.716036 14.923123 12.117556 12.479184 -2.510394 -0.419927 1.689762 -3.714316 -9.233943 0.074289 0.413324 0.031161
-23.221537 87.910267 -2.380600 -144.325450 -9.061693 -0.953710 5.513543 2.729281 -2.112086 3.116210 1.519398 -1.089156 3.891051 1.908307 -1.348523 3.116210 1.519398 -1.089156 -6.329778 28.723127 7.281112 -8.830163 7.011767 9.695477 5.274937 -7.441986 -6.197036 -19.765311 -43.839140 63.300263 106.757722 -32.213036 15.524888 -7.616967 -7.049679 20.399862 -2.882551 0.801616 1.880509 3.539548 -1.435585 -85.260121 1.177155 -3.157013 0.688736 -2.401977 3.682119 2.082649 -7.611514 13.723213 -10.791937 0.816409 2.736107 -1.404639 1.755312 -7.008702 8.549777 0.054644 -0.366455 0.013267 21.704651 14.931022 12.122424 12.479221 -2.509722 -0.422251 1.693806 -3.713671 -9.233058 0.074809 0.412675 0.029696
-23.218393 87.910054 -2.385587 -144.315826 -9.069577 -0.955163 5.508819 2.733446 -2.110884 3.113463 1.522032 -1.088709 3.887612 1.911587 -1.347953 3.113463 1.522032 -1.088709 -6.342606 28.702050 7.273841 -8.842914 6.984472 9.689875 5.270399 -7.441513 -6.193987 -19.771010 -43.845700 63.315466 106.741923 -32.227974 15.523801 -7.629396 -7.044118 20.404317 -2.885479 0.797012 1.877478 3.541915 -1.434711 -85.264391 1.175345 -3.160004 0.687622 -2.396574 3.681526 2.081456 -7.616612 13.736443 -10.791345 0.821400 2.732114 -1.401158 1.750755 -7.009802 8.546991 0.054066 -0.366565 0.014011 21.694095 14.939511 12.130820 12.481188 -2.510451 -0.427624 1.694661 -3.711376 -9.232612 0.075098 0.411303 0.029670
